<svg id="a879ff7c-6879-442c-91b5-31cd0fd34a2c" data-name="Capa 1" xmlns="http://www.w3.org/2000/svg" viewBox="0 0 800 666.67"><title>bag</title><path d="M155.73,173.33l-11.1-66.66H104.76a53.31,53.31,0,1,0,0,26.66H122l6.66,40h-.5l68.94,346.88c-32.86,2.51-60.24,27.82-63.46,59.66A66.8,66.8,0,0,0,200,653.33h26.67a80,80,0,1,0,160,0H533.33a80,80,0,0,0,160,0h53.34a13.33,13.33,0,1,0,0-26.66h-58a79.87,79.87,0,0,0-150.67,0H382a79.87,79.87,0,0,0-150.67,0H200a40.12,40.12,0,0,1-29.65-13.24,39.55,39.55,0,0,1-10.15-30.88c2-20.12,20.61-35.87,42.31-35.87h531A66.59,66.59,0,0,0,800,480.17V173.33ZM53.33,146.67A26.67,26.67,0,1,1,80,120,26.69,26.69,0,0,1,53.33,146.67Z" transform="translate(0 -66.67)" style="fill:#ed7d0f"/><circle cx="306.44" cy="582.62" r="43.2" style="fill:#fff"/><circle cx="613.28" cy="582.62" r="43.2" style="fill:#fff"/></svg>